<svg width="17" height="18" viewBox="0 0 17 18" fill="none" xmlns="http://www.w3.org/2000/svg">
<g clip-path="url(#clip0)">
<path d="M12.9243 11.9075C12.3689 11.3269 11.6756 11.3269 11.1237 11.9075C10.7028 12.3495 10.2818 12.7915 9.8679 13.2409C9.7547 13.3645 9.65919 13.3908 9.52122 13.3084C9.24883 13.151 8.95876 13.0237 8.69698 12.8514C7.47653 12.0386 6.45418 10.9936 5.54857 9.81743C5.0993 9.23311 4.69956 8.60759 4.42009 7.90341C4.36349 7.76108 4.37411 7.66744 4.48377 7.55132C4.90474 7.12058 5.31509 6.67859 5.72898 6.23661C6.3056 5.62232 6.3056 4.90316 5.72545 4.28513C5.39645 3.93304 5.06746 3.58845 4.73847 3.23636C4.39887 2.87678 4.0628 2.51345 3.71966 2.15762C3.16427 1.58453 2.47091 1.58453 1.91905 2.16136C1.49455 2.60335 1.08773 3.05657 0.656152 3.49106C0.25641 3.89184 0.0547704 4.38252 0.0123199 4.9556C-0.0548933 5.88826 0.160897 6.76849 0.465125 7.62624C1.08773 9.40166 2.03579 10.9786 3.18549 12.4244C4.73847 14.3796 6.59214 15.9266 8.76065 17.0427C9.73701 17.5447 10.7488 17.9305 11.8489 17.9941C12.606 18.0391 13.2639 17.8368 13.791 17.2113C14.1519 16.7843 14.5587 16.3948 14.9407 15.9865C15.5067 15.3797 15.5103 14.6455 14.9478 14.0462C14.2757 13.3308 13.6 12.6192 12.9243 11.9075Z" fill="white"/>
<path d="M12.2488 8.92199L13.5541 8.68602C13.3489 7.41625 12.7829 6.26634 11.9233 5.3524C11.0142 4.38978 9.86445 3.78298 8.59801 3.5957L8.41406 4.98533C9.39396 5.13141 10.2854 5.59962 10.9894 6.345C11.6544 7.04917 12.0896 7.94064 12.2488 8.92199Z" fill="white"/>
<path d="M14.2899 2.9141C12.7829 1.31846 10.8762 0.310887 8.77135 0L8.5874 1.38963C10.4057 1.65931 12.0542 2.53205 13.356 3.90669C14.5906 5.21392 15.4007 6.86574 15.6943 8.68237L16.9997 8.4464C16.6565 6.34135 15.7191 4.43108 14.2899 2.9141Z" fill="white"/>
</g>
<defs>
<clipPath id="clip0">
<rect width="17" height="18" fill="white"/>
</clipPath>
</defs>
</svg>
